<?xml version="1.0" encoding="UTF-8" standalone="no"?>
<!DOCTYPE svg PUBLIC "-//W3C//DTD SVG 1.1//EN" "http://www.w3.org/Graphics/SVG/1.1/DTD/svg11.dtd">
<svg width="100%" height="100%" viewBox="0 0 3354 847" version="1.1" xmlns="http://www.w3.org/2000/svg" xmlns:xlink="http://www.w3.org/1999/xlink" xml:space="preserve" xmlns:serif="http://www.serif.com/" style="fill-rule:evenodd;clip-rule:evenodd;stroke-linejoin:round;stroke-miterlimit:2;">
    <g transform="matrix(1,0,0,1,-64,-100.127694)">
        <g transform="matrix(1,0,0,1,-31,-1785)">
            <path d="M1238.546,2331.868C1185.894,2331.762 1032.618,2332.823 790.636,2345.704C386.595,2760.77 158.419,2733.104 130,2730C101.339,2726.87 90.974,2705.997 133,2711C324.845,2733.837 553.234,2546.11 746.912,2348.108C594.492,2356.751 409.98,2369.933 196,2390C147.935,2394.508 97.874,2378.486 95,2346C95,2346 99.988,2380.01 201,2370C385.071,2351.758 585.049,2338.341 765.094,2329.389C797.576,2295.714 828.994,2261.925 859,2229C1029.39,2042.034 999.472,1769.533 643,1965C289.789,2158.679 423,2256 423,2256C423,2256 451.61,2263.601 414,2263C393.649,2262.675 259.541,2165.683 584,1973C906.511,1781.474 1210.427,1904.562 808.366,2327.304C997.07,2318.506 1159.702,2314.773 1252.525,2315.665C1470.645,2065.138 1623,1997 1623,1997C1623,1997 1715.226,1987.517 1641,2011C1566.774,2034.483 1464.351,2133.684 1427,2172C1373.189,2227.201 1327.753,2275.647 1289.483,2318.204C1322.477,2319.338 1454.249,2326.389 1475,2367C1485.748,2388.034 1502.355,2351.172 1559.781,2359.73C1643.286,2372.175 1644.11,2402.22 1789.221,2349.13L1789.224,2349.112C1789.224,2349.112 1808.431,2341.792 1822,2337C1835.569,2332.208 1835.317,2338.407 1799,2375C1765.998,2408.253 1692,2497.847 1692,2497.847C1692,2497.847 2229.572,2148.383 2006,2477C2006,2477 2220.512,2349.458 2281,2412.424C2301.838,2434.115 2215.961,2459.029 2243,2506C2246.138,2511.451 2244,2507 2244,2507C2244,2507 2277.991,2545.462 2505,2442C2553.111,2420.073 2599.193,2413.376 2631.064,2412.806C2661.959,2385.167 2691.827,2368.884 2791,2362C2871.677,2356.399 2866.096,2423.626 2687,2437C2662.931,2438.797 2623,2437 2623,2437C2623,2437 2490.905,2558.775 2795,2504C2854.515,2493.28 3031.81,2421.605 3076.621,2403.267C3076.43,2400.884 3076.223,2398.462 3076,2396C3065.204,2276.934 3241,2336 3241,2336C3241,2336 3257.487,2368.892 3230,2354C3071.824,2268.305 3095.399,2444.239 3095,2527C3184.514,2517.645 3363.16,2429.768 3405,2410C3446.84,2390.232 3467.239,2397.1 3425,2420C3210.168,2536.469 3092,2546 3092,2546C3044.312,2618.035 2867.462,2591.008 2843,2591C2818.538,2590.992 2808.605,2575.212 2845,2574C2997.326,2568.926 3060,2539 3060,2539C3060,2539 3083.19,2516.379 3077.643,2418.166C3039.903,2434.276 2865.429,2507.148 2752,2527C2631.356,2548.115 2497.431,2547.387 2608.193,2434.557C2579.651,2439.515 2515.433,2458.05 2371,2517C2286.249,2551.591 2185.261,2529.238 2247,2437C2280.215,2387.377 2164.905,2391.998 2048,2475C1931.095,2558.002 1915.974,2559.376 1978,2485C2038.952,2411.913 2104.191,2257.88 1844,2426C1792.509,2459.271 1665,2535 1665,2535C1665,2535 1631.759,2553.246 1650,2527C1668.241,2500.754 1787,2362 1787,2362C1632.061,2412.422 1593.65,2378.302 1513.273,2376.275C1493.921,2375.787 1488.849,2388.819 1488,2391L1494,2404C1494.239,2405.071 1496.4,2402.996 1496.086,2420.657C1495.927,2429.638 1491.964,2456.363 1453.035,2482.475C1374.403,2535.219 1347.843,2428.036 1414,2398L1457,2380C1457,2380 1473.564,2330.53 1278.053,2330.978C1017.027,2624.196 1109.74,2626.026 1125,2645C1142.631,2666.923 1130.69,2673.585 1106,2658C1046.352,2620.349 1069.043,2545.994 1158,2431C1185.641,2395.269 1212.537,2362.287 1238.546,2331.868ZM1463,2395C1463,2395 1458.861,2385.073 1413,2418C1375.679,2444.796 1384.452,2541.485 1471,2448C1495.504,2421.532 1463,2395 1463,2395ZM2646,2419C2646,2419 2685.779,2421.327 2780,2402C2814.14,2394.997 2825.653,2383.259 2765,2381C2704.347,2378.741 2646,2419 2646,2419ZM2891,2582C2891,2582 2841.657,2589.983 2945,2587C3048.343,2584.017 3067,2547 3067,2547C2999.859,2584.591 2891,2582 2891,2582Z"/>
        </g>
    </g>
</svg>
